PathFileType  4	(X/Y/Z) C:\Users\antoi\Documents\MyRepositories\mobilecap\ResultsAnalysis
DataRate	CameraRate	NumFrames	NumMarkers	Units	OrigDataRate	OrigDataStartFrame	OrigNumFrames
100.0	100.0	4	51	mm	100.0	52	138
Frame#	Time	r_knee			r_shank_antsup			r_ankle			r_calc			r_5meta			r_toe			L_knee			L_shank_antsup			L_ankle			L_calc			L_5meta			L_toe			r_sh2			r_sh3			r_sh4			L_sh2			L_sh3			r_thigh1			r_thigh2			r_thigh3			r_thigh4			r_thigh5			L_thigh1			L_thigh2			L_thigh3			L_thigh4			r.ASIS			r.PSIS			L.ASIS			L.PSIS			C7			R_Shoulder			L_Shoulder			R_Sternum			L_Sternum			R_humerus			R_elbow_med			R_elbow_lat			R_forearm			R_wrist_radius			R_wrist_ulna			L_humerus			L_elbow_med			L_elbow_lat			L_forearm			L_wrist_radius			L_wrist_ulna			R_HJC			L_HJC			R_HJC_reg			L_HJC_reg			
		X1	Y1	Z1	X2	Y2	Z2	X3	Y3	Z3	X4	Y4	Z4	X5	Y5	Z5	X6	Y6	Z6	X7	Y7	Z7	X8	Y8	Z8	X9	Y9	Z9	X10	Y10	Z10	X11	Y11	Z11	X12	Y12	Z12	X13	Y13	Z13	X14	Y14	Z14	X15	Y15	Z15	X16	Y16	Z16	X17	Y17	Z17	X18	Y18	Z18	X19	Y19	Z19	X20	Y20	Z20	X21	Y21	Z21	X22	Y22	Z22	X23	Y23	Z23	X24	Y24	Z24	X25	Y25	Z25	X26	Y26	Z26	X27	Y27	Z27	X28	Y28	Z28	X29	Y29	Z29	X30	Y30	Z30	X31	Y31	Z31	X32	Y32	Z32	X33	Y33	Z33	X34	Y34	Z34	X35	Y35	Z35	X36	Y36	Z36	X37	Y37	Z37	X38	Y38	Z38	X39	Y39	Z39	X40	Y40	Z40	X41	Y41	Z41	X42	Y42	Z42	X43	Y43	Z43	X44	Y44	Z44	X45	Y45	Z45	X46	Y46	Z46	X47	Y47	Z47	X48	Y48	Z48	X49	Y49	Z49	X50	Y50	Z50	X51	Y51	Z51	

52	0.51000000	273.78387	461.74443	-125.85640	274.77569	336.94486	-154.71884	128.29627	102.83366	-204.54525	76.14132	72.06080	-261.37697	229.01479	37.40280	-170.47529	271.03938	52.29682	-211.70559	583.80066	473.84137	-406.14015	660.01779	403.77034	-358.81943	705.05662	103.68845	-368.19852	680.08240	50.27068	-317.33434	838.47022	110.71781	-381.42824	858.68421	151.81564	-332.21113	236.76334	236.43696	-180.84960	219.42738	345.26063	-104.40684	165.02647	252.42984	-139.23279	606.45784	400.47185	-428.62664	643.92786	284.16674	-434.51856	439.65664	738.77848	-104.87343	419.37247	629.07561	-112.28856	366.17535	612.01049	-74.70774	335.29923	750.44318	-63.46376	314.17215	637.22785	-70.67232	519.23935	760.33845	-425.93679	585.88011	641.30173	-416.94978	422.10846	711.49220	-455.29607	490.64382	588.43597	-440.89654	478.54917	908.70720	-130.26669	300.50153	958.15793	-213.54939	500.27424	912.67114	-371.81360	307.38785	951.25096	-330.17378	332.60977	1405.85549	-247.29307	396.27743	1373.47934	-101.11711	382.53741	1382.52509	-411.03858	461.67588	1355.86768	-237.30957	460.46370	1354.45446	-281.04247	447.65857	1256.60784	-40.26998	430.08385	1043.21179	-70.64347	463.98376	1064.17191	-6.14212	571.67964	994.29193	-5.10836	654.39289	932.49183	-19.93352	633.82380	906.01664	-0.53290	374.94343	1232.12919	-477.84219	287.76994	1057.04501	-404.63874	284.41134	1067.76608	-478.15703	298.55053	976.86372	-517.86610	292.82450	844.92367	-525.10760	262.17908	850.52887	-533.01249	389.67422	839.62208	-163.52434	411.47589	836.27601	-351.60631	406.94742	851.44091	-164.75230	416.36802	841.99259	-324.28170	
53	0.52000000	281.23998	461.51150	-125.85774	280.14361	336.31624	-154.62041	129.47664	104.69442	-204.36669	76.88352	74.68306	-261.12857	229.28317	37.42383	-170.19616	271.41993	51.86540	-211.45850	594.57519	470.99939	-406.97168	672.26863	402.32544	-358.83865	722.18940	102.45813	-366.49448	697.82654	48.45245	-315.71514	855.67968	112.16422	-378.52282	874.34324	153.88317	-329.29328	240.41947	236.52961	-180.58333	224.91210	345.82040	-104.49906	168.81257	254.03224	-139.35435	618.64070	397.64393	-428.84193	657.93657	281.83169	-433.98790	450.13891	736.70419	-104.16730	428.75246	627.26054	-111.43001	375.04799	610.91248	-74.39043	345.61680	749.61200	-63.37260	323.07465	636.55603	-70.69517	533.48939	758.45427	-425.21778	598.78589	638.65089	-416.23241	436.24276	710.89303	-456.15650	503.43108	587.03959	-441.77643	490.81422	906.55188	-129.59664	313.31530	955.93964	-214.59502	514.23159	911.05474	-371.16102	320.97483	949.15140	-331.11731	345.14394	1403.73179	-247.85189	408.94229	1371.51419	-101.62509	395.08063	1380.20759	-411.63373	474.31194	1353.91783	-237.81703	473.11629	1352.41715	-281.53446	460.77828	1254.80383	-40.87635	443.46884	1041.15969	-70.41665	477.64351	1062.56585	-6.15824	586.06085	993.94222	-5.98607	669.47369	933.37730	-21.44875	649.43372	906.53440	-1.99742	386.98128	1229.80458	-478.34000	299.26233	1055.12515	-404.78917	295.52940	1066.02962	-478.29038	308.50117	975.15874	-518.20098	300.87582	843.23557	-525.64628	270.25645	849.38259	-533.49676	402.20261	837.43230	-163.89708	425.52357	834.42263	-351.80386	419.49803	849.37400	-164.63447	429.99085	840.07662	-324.22890	
54	0.53000000	289.24108	461.22724	-125.98311	285.92784	335.70641	-154.63997	130.80028	106.80300	-204.10214	77.77901	77.58842	-260.80578	229.56917	37.44464	-169.89981	271.87841	51.39823	-211.20181	606.14476	468.56874	-407.32610	684.52244	400.28479	-358.57603	736.24621	100.53670	-365.08084	712.00245	46.21171	-314.46861	869.79233	111.52000	-376.03513	887.48403	153.58351	-326.76332	244.38447	236.69939	-180.37746	230.87523	346.43643	-104.66403	172.92523	255.80774	-139.54358	630.86032	394.92333	-428.80195	670.82849	279.30960	-433.40499	461.00458	734.59413	-103.70118	438.54951	625.40963	-110.80404	384.37651	609.75854	-74.27533	356.28889	748.70383	-63.42868	332.49177	635.88596	-71.03344	547.91203	756.81112	-424.48166	612.25869	636.50066	-415.22405	450.85763	710.23961	-457.14656	517.09792	585.86400	-442.50855	503.39783	904.34021	-129.05736	326.40747	953.74215	-215.62977	528.30726	909.53713	-370.64519	334.71464	947.15054	-332.02763	357.72835	1401.59043	-248.46842	421.62556	1369.56492	-102.16244	407.70025	1377.89961	-412.26731	486.99556	1352.00610	-238.36340	485.81390	1350.42556	-282.07824	473.77848	1252.96301	-41.48693	456.54239	1039.11557	-70.28840	491.02566	1060.90380	-6.24109	600.04555	993.39977	-6.91186	684.04290	933.90309	-22.99346	664.43851	906.73109	-3.44894	399.11349	1227.51028	-478.88507	311.00800	1053.15473	-404.98182	306.84565	1064.24297	-478.46466	318.75499	973.36885	-518.51895	309.41937	841.50384	-526.16453	278.95995	848.11445	-533.95593	415.01651	835.22206	-164.38309	439.70695	832.66585	-352.12391	432.34816	847.28546	-164.60629	443.74636	838.24384	-324.27741	
55	0.54000000	297.81046	460.88622	-126.25850	292.18294	335.12818	-154.76594	132.33033	109.15478	-203.73396	78.86722	80.80952	-260.39544	229.86644	37.47912	-169.57646	272.44573	50.89757	-210.90917	618.60610	466.52764	-407.09448	696.76870	397.66140	-357.92361	747.43480	97.99750	-363.99115	722.75954	43.74979	-313.62599	881.09680	108.75808	-373.93583	898.42637	150.84212	-324.56228	248.67134	236.94964	-180.22985	237.34522	347.12628	-104.91032	177.39166	257.77433	-139.80413	643.21932	392.34276	-428.46297	682.74972	276.63335	-432.74125	472.28502	732.44807	-103.49924	448.79622	623.52573	-110.44856	394.19133	608.53621	-74.41003	367.36149	747.71559	-63.71360	342.44428	635.18059	-71.67715	562.49641	755.38318	-423.76752	626.25581	634.80169	-413.93452	465.90051	709.50185	-458.20600	531.55569	584.83332	-442.99336	516.34303	902.07372	-128.67891	339.80847	951.59262	-216.63049	542.50523	908.10032	-370.31587	348.62130	945.26922	-332.89988	370.35210	1399.45263	-249.13878	434.31921	1367.65682	-102.73097	420.37412	1375.63410	-412.93098	499.72864	1350.14950	-238.94790	498.54194	1348.49860	-282.66964	486.64458	1251.11253	-42.08085	469.28821	1037.11707	-70.27463	504.09699	1059.20496	-6.40010	613.60853	992.67224	-7.87654	698.09386	934.05997	-24.55253	678.83760	906.60785	-4.88546	411.33827	1225.27787	-479.47530	322.98727	1051.17129	-405.22263	318.36960	1062.42930	-478.68337	329.34006	971.52986	-518.84052	318.53701	839.75321	-526.68379	288.31488	846.74528	-534.40217	428.14508	833.00534	-164.98813	454.01168	831.00669	-352.58065	445.52306	845.17887	-164.68786	457.63587	836.49028	-324.45934	
